<svg width="1920" height="6578" viewBox="0 0 1920 6578" fill="none" xmlns="http://www.w3.org/2000/svg">
<path fill-rule="evenodd" clip-rule="evenodd" d="M-6.87531 346.373C40.9625 346.373 79.742 385.153 79.742 432.99C79.742 480.828 40.9625 519.609 -6.87531 519.609C-54.7123 519.609 -93.4926 480.828 -93.4926 432.99C-93.4926 385.153 -54.7123 346.373 -6.87531 346.373Z" fill="black" fill-opacity="0.01" stroke="#04D6B2" stroke-width="34"/>
<path fill-rule="evenodd" clip-rule="evenodd" d="M80.0157 620.225C94.257 620.225 105.802 631.771 105.802 646.012C105.802 660.253 94.257 671.798 80.0157 671.798C65.7744 671.798 54.2293 660.253 54.2293 646.012C54.2293 631.771 65.7744 620.225 80.0157 620.225Z" fill="black" fill-opacity="0.01" stroke="#04D6B2" stroke-width="18"/>
<path fill-rule="evenodd" clip-rule="evenodd" d="M1798.02 1299.23C1812.26 1299.23 1823.8 1310.77 1823.8 1325.01C1823.8 1339.25 1812.26 1350.8 1798.02 1350.8C1783.77 1350.8 1772.23 1339.25 1772.23 1325.01C1772.23 1310.77 1783.77 1299.23 1798.02 1299.23Z" fill="black" fill-opacity="0.01" stroke="#04D6B2" stroke-width="18"/>
<path fill-rule="evenodd" clip-rule="evenodd" d="M1917.39 3706C1869.56 3706 1830.79 3744.76 1830.79 3792.58C1830.79 3840.39 1869.56 3879.16 1917.39 3879.16C1965.22 3879.16 2003.99 3840.39 2003.99 3792.58C2003.99 3744.76 1965.22 3706 1917.39 3706Z" fill="black" fill-opacity="0.01" stroke="#04D6B2" stroke-width="34"/>
<path fill-rule="evenodd" clip-rule="evenodd" d="M115.016 1722.23C129.257 1722.23 140.802 1733.77 140.802 1748.01C140.802 1762.25 129.257 1773.8 115.016 1773.8C100.774 1773.8 89.2293 1762.25 89.2293 1748.01C89.2293 1733.77 100.774 1722.23 115.016 1722.23Z" fill="black" fill-opacity="0.01" stroke="#04D6B2" stroke-width="18"/>
<path fill-rule="evenodd" clip-rule="evenodd" d="M107.793 4768.44C93.5539 4768.44 82.0109 4779.98 82.0109 4794.21C82.0109 4808.45 93.5539 4819.99 107.793 4819.99C122.032 4819.99 133.575 4808.45 133.575 4794.21C133.575 4779.98 122.032 4768.44 107.793 4768.44Z" fill="black" fill-opacity="0.01" stroke="#04D6B2" stroke-width="18"/>
<path fill-rule="evenodd" clip-rule="evenodd" d="M583.968 6493.27C592.11 6493.27 598.71 6499.87 598.71 6508.01C598.71 6516.16 592.11 6522.76 583.968 6522.76C575.825 6522.76 569.225 6516.16 569.225 6508.01C569.225 6499.87 575.825 6493.27 583.968 6493.27Z" fill="#04D6B2"/>
<path fill-rule="evenodd" clip-rule="evenodd" d="M1167.97 2103.27C1176.11 2103.27 1182.71 2109.87 1182.71 2118.01C1182.71 2126.16 1176.11 2132.76 1167.97 2132.76C1159.83 2132.76 1153.22 2126.16 1153.22 2118.01C1153.22 2109.87 1159.83 2103.27 1167.97 2103.27Z" fill="#04D6B2"/>
<path fill-rule="evenodd" clip-rule="evenodd" d="M1448.79 5550.44C1434.55 5550.44 1423.01 5561.98 1423.01 5576.21C1423.01 5590.45 1434.55 5601.99 1448.79 5601.99C1463.03 5601.99 1474.57 5590.45 1474.57 5576.21C1474.57 5561.98 1463.03 5550.44 1448.79 5550.44Z" fill="black" fill-opacity="0.01" stroke="#04D6B2" stroke-width="18"/>
</svg>
