<svg width="23" height="22" viewBox="0 0 23 22" fill="none" xmlns="http://www.w3.org/2000/svg">
<g clip-path="url(#clip0_30_100)">
<path d="M0 6.86084H5.23024H6.00824V22.0002H0V6.86084ZM1.03951 20.9973H4.96219V7.83819H1.03951V20.9973Z" fill="white"/>
<path d="M0 2.5998C0.032689 2.47843 0.0588402 2.36345 0.0915293 2.24208C0.26874 1.53859 0.706789 0.924369 1.32087 0.518323C1.93495 0.112277 2.68138 -0.0567071 3.41565 0.0440849C4.14992 0.144877 4.8198 0.508276 5.2956 1.06393C5.7714 1.61958 6.01928 2.32796 5.99124 3.05192C5.96321 3.77589 5.66125 4.46394 5.14384 4.98287C4.62642 5.5018 3.93035 5.8147 3.19039 5.86099C2.45042 5.90728 1.71919 5.68367 1.13827 5.23344C0.557352 4.78322 0.168061 4.1384 0.0457647 3.42384C0.0327648 3.39298 0.017469 3.36309 0 3.33441V2.5998ZM4.99488 2.94475C4.99319 2.42735 4.78297 1.93143 4.40976 1.56438C4.03654 1.19733 3.53037 0.988696 3.00085 0.983659C2.49089 1.01218 2.01141 1.23021 1.6607 1.59306C1.30998 1.9559 1.1146 2.43609 1.1146 2.93517C1.1146 3.43425 1.30998 3.91443 1.6607 4.27728C2.01141 4.64013 2.49089 4.85816 3.00085 4.88668C3.52805 4.88501 4.03325 4.68008 4.40665 4.31644C4.78004 3.9528 4.99144 3.45985 4.99488 2.94475Z" fill="white"/>
<path d="M13.9975 7.80625C14.4486 7.59545 14.8539 7.3591 15.305 7.20579C16.0733 6.9273 16.8959 6.82117 17.7118 6.89526C18.5277 6.96934 19.3162 7.22174 20.0188 7.63378C20.7327 8.01089 21.3548 8.53438 21.8423 9.16837C22.3298 9.80236 22.6712 10.5318 22.8431 11.3068C22.9465 11.7405 23.0013 12.1839 23.0066 12.6291C23.0066 15.7017 23.0066 18.7743 23.0066 21.8469C23.0066 21.898 23.0066 21.9491 23.0066 22.013H17.0114C17.0114 21.9236 17.0114 21.8341 17.0114 21.7447C17.0114 19.1193 17.0114 16.4938 17.0114 13.8684C17.0269 13.626 16.9828 13.3836 16.8827 13.1613C16.7826 12.939 16.6294 12.7434 16.4361 12.5908C16.2287 12.4249 15.9793 12.3167 15.7142 12.2777C15.4492 12.2386 15.1782 12.2701 14.9299 12.3688C14.6817 12.4675 14.4652 12.6299 14.3034 12.8387C14.1416 13.0475 14.0404 13.2951 14.0105 13.5554C14.0105 13.6704 14.0105 13.7853 14.0105 13.9067V21.981H8.01538V6.86084H13.9975V7.80625ZM21.9932 21.0037C21.9932 20.9207 21.9932 20.8568 21.9932 20.7929C21.9932 18.078 21.9932 15.3696 21.9932 12.6547C21.9903 12.2962 21.9509 11.9388 21.8755 11.5879C21.7063 10.7677 21.3131 10.0074 20.7376 9.38776C20.1621 8.76811 19.4258 8.31213 18.6066 8.06816C17.9668 7.84097 17.2812 7.76422 16.6054 7.84413C15.9296 7.92403 15.2825 8.15835 14.7166 8.52809C14.1762 8.91041 13.6884 9.35912 13.2652 9.86316C13.1868 9.95259 13.1018 10.0356 12.971 10.1698V7.83819H9.00913V20.9973H12.9972V20.7162C12.9972 18.4038 12.9972 16.0978 12.9972 13.7853C12.9798 13.454 13.0317 13.1226 13.1495 12.8114C13.2673 12.5002 13.4487 12.2157 13.6827 11.9751C13.9166 11.7346 14.1981 11.5431 14.5102 11.4122C14.8223 11.2813 15.1583 11.2138 15.4979 11.2138C15.8375 11.2138 16.1735 11.2813 16.4856 11.4122C16.7977 11.5431 17.0792 11.7346 17.3131 11.9751C17.5471 12.2157 17.7285 12.5002 17.8463 12.8114C17.9641 13.1226 18.016 13.454 17.9986 13.7853C17.9986 16.1063 17.9986 18.4251 17.9986 20.7418V21.0037H21.9932Z" fill="white"/>
</g>
<defs>
<clipPath id="clip0_30_100">
<rect width="23" height="22" fill="white"/>
</clipPath>
</defs>
</svg>
