<svg width="21" height="21" viewBox="0 0 21 21" fill="none" xmlns="http://www.w3.org/2000/svg">
<g clip-path="url(#clip0_30_96)">
<path d="M13.675 21H7.36523C7.2333 21 7.10711 21 6.97517 20.9657C6.14075 20.9678 5.30837 20.8833 4.49143 20.7137C3.66263 20.5414 2.88604 20.1769 2.2244 19.6497C1.56276 19.1224 1.03461 18.4472 0.682632 17.6785C0.241873 16.6719 0.026535 15.5813 0.0516569 14.483C0.0115039 12.2209 -0.0114406 9.95884 3.16659e-05 7.69678C-0.0338631 6.60879 0.06242 5.52064 0.286839 4.45544C0.468996 3.57834 0.868413 2.76081 1.44859 2.07754C2.02877 1.39427 2.77121 0.867055 3.60806 0.544064C4.56344 0.188679 5.57722 0.0157826 6.59659 0.0343827C8.74764 0.0114757 10.8815 -0.00570459 13.0211 2.21664e-05C14.1448 -0.0391935 15.2695 0.0395036 16.3767 0.234819C17.3336 0.402565 18.2273 0.825308 18.9634 1.45836C19.6994 2.09141 20.2505 2.91125 20.5583 3.83122C20.8752 4.77924 21.0208 5.7759 20.9886 6.77477C20.9886 9.19719 20.9886 11.6196 20.9886 14.042C20.9819 14.7323 20.9263 15.4212 20.8222 16.1036C20.6411 17.4766 19.9439 18.7295 18.8719 19.6084C17.8169 20.4195 16.5319 20.8765 15.2008 20.9141C14.6731 20.9485 14.174 20.9714 13.675 21ZM10.5086 19.1388C11.0822 19.1388 11.6157 19.1388 12.1721 19.1388C13.3652 19.0987 14.5756 19.1388 15.7572 18.9613C16.5101 18.9014 17.2225 18.596 17.7843 18.092C18.3461 17.588 18.7263 16.9134 18.8662 16.1724C19.0154 15.5205 19.0905 14.8539 19.0899 14.1852C19.1301 12.2381 19.1415 10.2853 19.1301 8.33817C19.1312 7.32049 19.0776 6.30348 18.9694 5.29154C18.9092 4.51134 18.5871 3.77425 18.0551 3.19953C17.5232 2.62481 16.8126 2.24609 16.0383 2.12465C15.3062 1.98906 14.563 1.92195 13.8184 1.92421C11.8452 1.89367 9.87193 1.89367 7.89869 1.92421C6.98181 1.92289 6.06585 1.98219 5.15682 2.10174C4.40867 2.18339 3.70794 2.50762 3.16196 3.02478C2.61599 3.54193 2.25485 4.22351 2.13387 4.96512C2.00185 5.65613 1.93273 6.35766 1.92737 7.06111C1.89296 8.75623 1.89296 10.4513 1.92737 12.1465C1.92737 13.3204 1.97326 14.5002 2.08799 15.6684C2.12108 16.2427 2.29809 16.7996 2.60276 17.2878C2.90743 17.7761 3.33002 18.1802 3.83177 18.4631C4.48626 18.8284 5.22159 19.0252 5.97135 19.0357C7.48569 19.0758 9.00003 19.1045 10.5086 19.1388Z" fill="white"/>
<path d="M5.1051 10.4914C5.10624 9.42495 5.42396 8.38275 6.01814 7.49649C6.61231 6.61023 7.45627 5.91968 8.44339 5.51209C9.4305 5.10449 10.5165 4.99814 11.5641 5.20648C12.6117 5.41481 13.574 5.92848 14.3294 6.68258C15.0847 7.43669 15.5992 8.39739 15.8079 9.4433C16.0166 10.4892 15.91 11.5734 15.5018 12.5589C15.0935 13.5444 14.4018 14.387 13.5141 14.9802C12.6264 15.5734 11.5825 15.8906 10.5143 15.8917C9.07968 15.8917 7.70383 15.3228 6.68941 14.31C5.675 13.2973 5.1051 11.9237 5.1051 10.4914ZM10.5085 13.9905C11.2022 13.9916 11.8806 13.7872 12.4579 13.4031C13.0351 13.0191 13.4852 12.4727 13.7512 11.8331C14.0172 11.1935 14.087 10.4895 13.952 9.81019C13.8169 9.13091 13.483 8.50691 12.9925 8.01722C12.502 7.52752 11.877 7.19415 11.1966 7.05933C10.5162 6.9245 9.81106 6.99427 9.17041 7.25982C8.52976 7.52536 7.98245 7.97473 7.59777 8.55102C7.2131 9.12731 7.00837 9.80461 7.0095 10.4971C7.00875 10.9561 7.09873 11.4107 7.27431 11.8349C7.44989 12.259 7.7076 12.6444 8.03266 12.969C8.35773 13.2935 8.74376 13.5508 9.16862 13.7261C9.59349 13.9014 10.0488 13.9912 10.5085 13.9905Z" fill="white"/>
<path d="M16.1587 3.63054C16.4783 3.65813 16.7754 3.80624 16.9896 4.04473C17.2037 4.28323 17.3189 4.59421 17.3116 4.91444C17.3043 5.23466 17.1751 5.54008 16.9503 5.7686C16.7254 5.99711 16.4219 6.13155 16.1013 6.14459C15.9348 6.14013 15.7708 6.10297 15.6187 6.03522C15.4666 5.96747 15.3294 5.87046 15.2149 5.74973C15.1003 5.62901 15.0107 5.48693 14.9512 5.33163C14.8917 5.17632 14.8635 5.01083 14.868 4.84461C14.8725 4.68015 14.9094 4.51819 14.9768 4.36804C15.0442 4.21788 15.1406 4.08251 15.2605 3.96968C15.3805 3.85686 15.5215 3.76881 15.6757 3.71061C15.8298 3.65241 15.994 3.6252 16.1587 3.63054Z" fill="white"/>
</g>
<defs>
<clipPath id="clip0_30_96">
<rect width="21" height="21" fill="white"/>
</clipPath>
</defs>
</svg>
