<svg width="23" height="17" viewBox="0 0 23 17" fill="none" xmlns="http://www.w3.org/2000/svg">
<g clip-path="url(#clip0_30_104)">
<path d="M0 6.48335C0 6.01982 0.0677376 5.5563 0.0923695 5.08675C0.112335 4.30467 0.232321 3.5281 0.449531 2.77514C0.637761 2.07493 1.05119 1.4524 1.62884 0.999343C2.20649 0.546286 2.91779 0.286692 3.65783 0.258846C4.69853 0.168549 5.75154 0.13243 6.79224 0.0902909C10.2407 -0.0421453 13.6892 -0.028099 17.1376 0.13243C18.012 0.168549 18.8926 0.198648 19.7548 0.319045C20.4628 0.423637 21.1202 0.740351 21.6363 1.22553C22.1525 1.71071 22.502 2.34046 22.6367 3.02797C22.8536 4.09643 22.9608 5.18337 22.9569 6.27266C23.0586 8.52481 23.0093 10.7811 22.8091 13.0269C22.7586 13.8937 22.4575 14.7287 21.9408 15.4348C21.6731 15.7948 21.3296 16.0944 20.9333 16.3135C20.5371 16.5326 20.0974 16.6661 19.6439 16.705C18.3569 16.8134 17.0637 16.8736 15.7706 16.9217C12.5315 17.0602 9.29237 17.006 6.05944 16.8736C5.07165 16.8476 4.0865 16.7612 3.10977 16.6147C2.42715 16.5143 1.79431 16.206 1.30123 15.7337C0.808159 15.2614 0.479964 14.6492 0.36332 13.9841C0.163524 13.031 0.0583505 12.0613 0.0492637 11.0885C0.0492637 10.9139 0.0184739 10.7394 0 10.5708V6.48335ZM11.9957 1.28222C9.87738 1.33038 8.27015 1.36048 6.66292 1.41465C5.6838 1.44475 4.72932 1.51097 3.73173 1.57719C3.29352 1.58928 2.87033 1.73593 2.52216 1.99633C2.174 2.25673 1.91852 2.61767 1.79197 3.02797C1.5793 3.67449 1.46316 4.34761 1.44712 5.02655C1.30242 7.35006 1.30242 9.68003 1.44712 12.0035C1.4905 12.5987 1.57693 13.1901 1.70576 13.7734C1.77807 14.167 1.97392 14.5289 2.26613 14.8088C2.65404 15.1654 3.15718 15.3783 3.68862 15.4108C4.47684 15.489 5.26506 15.5552 6.05944 15.5853C9.67416 15.7238 13.295 15.7599 16.9159 15.5853C17.7842 15.5432 18.6525 15.5071 19.5146 15.4047C19.8857 15.3736 20.2394 15.2366 20.5317 15.0108C20.8239 14.7851 21.042 14.4804 21.1588 14.1346C21.409 13.4211 21.542 12.6734 21.5529 11.9193C21.6729 9.92671 21.6853 7.92936 21.5898 5.93555C21.6057 5.03406 21.5064 4.13416 21.2942 3.25672C21.1901 2.78686 20.9304 2.36369 20.5553 2.05276C20.0708 1.71372 19.4884 1.53448 18.8926 1.54107C16.4295 1.43873 13.9663 1.35446 11.9957 1.28222Z" fill="white"/>
<path d="M8.57807 8.27705V5.68853C8.55538 5.51156 8.58607 5.33197 8.6664 5.17184C8.74672 5.0117 8.87317 4.878 9.03018 4.78718C9.1872 4.69637 9.36795 4.65239 9.55019 4.66065C9.73244 4.66892 9.90824 4.72907 10.056 4.83371L14.9331 7.4403C15.1063 7.51279 15.2538 7.63379 15.3568 7.78806C15.4598 7.94232 15.5138 8.12294 15.5119 8.30715C15.5086 8.48794 15.4523 8.66401 15.3497 8.81445C15.2471 8.9649 15.1025 9.08342 14.9331 9.15595C13.3012 10.0047 11.6817 10.8596 10.0498 11.7144C9.90061 11.8154 9.72474 11.8721 9.54335 11.8777C9.36196 11.8833 9.18277 11.8376 9.02732 11.746C8.87187 11.6544 8.74678 11.521 8.66709 11.3616C8.58739 11.2022 8.55648 11.0237 8.57807 10.8475V8.27705ZM13.72 8.27705L9.93898 6.25439V10.2636L13.72 8.27705Z" fill="white"/>
</g>
<defs>
<clipPath id="clip0_30_104">
<rect width="23" height="17" fill="white"/>
</clipPath>
</defs>
</svg>
