<svg width="13" height="22" viewBox="0 0 13 22" fill="none" xmlns="http://www.w3.org/2000/svg">
<g clip-path="url(#clip0_30_107)">
<path d="M12.243 0C12.4958 0.107781 12.7063 0.290529 12.8436 0.521569C12.9809 0.75261 13.0379 1.01985 13.0063 1.28428C13.0063 2.20418 13.0063 3.13006 13.0063 4.05593C13.0204 4.21626 12.998 4.37762 12.9407 4.52875C12.8833 4.67988 12.7923 4.81713 12.6742 4.93091C12.556 5.04468 12.4134 5.13224 12.2564 5.18746C12.0994 5.24268 11.9318 5.26423 11.7652 5.25061C11.1075 5.25061 10.4559 5.25061 9.79815 5.25061C9.28932 5.25061 9.17763 5.34618 9.17763 5.84795C9.17763 6.34971 9.17763 6.86343 9.17763 7.38908H9.42584H11.6535C11.8208 7.37219 11.9899 7.39147 12.1485 7.44554C12.307 7.4996 12.451 7.58707 12.57 7.70157C12.6889 7.81606 12.7798 7.95469 12.8359 8.10732C12.8921 8.25995 12.9121 8.42273 12.8946 8.58376V11.7437C12.911 11.9045 12.8901 12.0668 12.8336 12.2189C12.777 12.371 12.6861 12.5092 12.5674 12.6234C12.4487 12.7377 12.3052 12.8252 12.1472 12.8796C11.9892 12.9341 11.8206 12.9541 11.6535 12.9384H9.17142V13.2131C9.17142 15.722 9.17142 18.2248 9.17142 20.7336C9.17082 20.9886 9.10925 21.24 8.99147 21.4684C8.90358 21.6242 8.77214 21.7532 8.61203 21.8408C8.45192 21.9284 8.26953 21.9712 8.0855 21.9642C6.84445 21.9642 5.6034 21.9642 4.36235 21.9642C4.08336 21.9644 3.81512 21.8606 3.61383 21.6747C3.41255 21.4887 3.29386 21.2349 3.28264 20.9666C3.28264 20.8651 3.28264 20.7635 3.28264 20.662V12.9742H1.30937C1.17425 12.9764 1.03921 12.9664 0.906026 12.9443C0.660822 12.9067 0.437112 12.7874 0.27384 12.6073C0.110569 12.4272 0.0180783 12.1977 0.0124704 11.9587C0.0124704 10.7641 0.0124704 9.61119 0.0124704 8.4404C0.010794 8.17312 0.118651 7.91599 0.312647 7.72477C0.506643 7.53355 0.771134 7.42366 1.04875 7.41895C1.66927 7.41895 2.2898 7.41895 2.94755 7.41895H3.2392C3.2392 7.32935 3.2392 7.2517 3.2392 7.17404C3.2392 6.53489 3.2392 5.88976 3.2392 5.24464C3.2657 3.93696 3.77116 2.68031 4.66641 1.69644C5.52856 0.787018 6.69876 0.202605 7.9676 0.0477872L8.13514 0H12.243ZM1.3528 11.684H1.61963C2.36426 11.684 3.10889 11.684 3.84732 11.684C4.0329 11.6774 4.21371 11.7414 4.3507 11.8621C4.48769 11.9828 4.56988 12.1505 4.57953 12.3291C4.58572 12.4206 4.58572 12.5124 4.57953 12.6039V20.6918H7.78144V12.5381C7.78144 11.9408 8.05447 11.684 8.66259 11.684H11.4922V8.69726H8.63156C8.52948 8.71074 8.42558 8.70332 8.32668 8.6755C8.22777 8.64768 8.13608 8.60007 8.0576 8.5358C7.97911 8.47152 7.91561 8.39203 7.87123 8.30251C7.82685 8.21298 7.8026 8.11545 7.80006 8.01629C7.80006 7.21586 7.80006 6.41542 7.83109 5.62693C7.82302 5.31149 7.91895 5.0017 8.10512 4.742C8.2913 4.4823 8.55814 4.28604 8.86736 4.18137C9.12662 4.09086 9.39857 4.0385 9.67405 4.02607C10.2511 4.02607 10.8344 4.02607 11.4115 4.02607H11.6411V1.23052C10.5242 1.23052 9.41963 1.23052 8.32751 1.30817C7.47956 1.36447 6.67562 1.69253 6.04397 2.24002C5.60018 2.62767 5.246 3.10079 5.00441 3.6287C4.76281 4.15661 4.6392 4.72751 4.64159 5.30437C4.59815 6.15259 4.64159 7.00679 4.64159 7.86098C4.66072 7.97735 4.65097 8.09642 4.61314 8.20847C4.57531 8.32051 4.51048 8.42235 4.42393 8.50566C4.33739 8.58896 4.2316 8.65138 4.11521 8.68779C3.99881 8.72421 3.87512 8.73359 3.75424 8.71518H1.5886H1.3528V11.684Z" fill="white"/>
</g>
<defs>
<clipPath id="clip0_30_107">
<rect width="13" height="22" fill="white"/>
</clipPath>
</defs>
</svg>
