<svg width="262" height="132" viewBox="0 0 262 132" fill="none" xmlns="http://www.w3.org/2000/svg">
<g clip-path="url(#clip0_30_85)">
<path d="M167 0C164.178 0.000123273 161.451 1.01729 159.319 2.86501C157.187 4.71273 155.792 7.26718 155.39 10.06H145.02L117.68 62.91L102.46 33.28H83.18L106.61 78.28H117.33L150.96 13.34H155.39C155.701 15.5671 156.646 17.6578 158.112 19.3627C159.579 21.0675 161.505 22.3145 163.66 22.9548C165.816 23.5951 168.11 23.6018 170.269 22.974C172.429 22.3462 174.362 21.1105 175.838 19.4142C177.314 17.7179 178.272 15.6327 178.595 13.4074C178.919 11.1821 178.596 8.91068 177.664 6.86405C176.732 4.81743 175.232 3.08205 173.341 1.86497C171.45 0.647882 169.249 0.000480149 167 0ZM167 18.43C165.507 18.4267 164.056 17.9282 162.877 17.0125C161.697 16.0969 160.854 14.8159 160.48 13.37C160.353 12.8291 160.286 12.2757 160.28 11.72C160.285 11.161 160.352 10.6042 160.48 10.06C160.789 8.84057 161.434 7.73232 162.341 6.86134C163.249 5.99036 164.383 5.39163 165.614 5.13326C166.845 4.8749 168.124 4.96728 169.305 5.3999C170.487 5.83252 171.523 6.58799 172.296 7.58038C173.069 8.57276 173.548 9.7622 173.678 11.0134C173.808 12.2645 173.585 13.5272 173.033 14.6576C172.482 15.7881 171.624 16.741 170.557 17.4079C169.49 18.0748 168.258 18.4289 167 18.43Z" fill="white"/>
<path d="M18.7 104.1H23.62C24.03 104.1 24.22 104.36 24.07 104.74L14.92 130.12C14.8607 130.26 14.7598 130.378 14.631 130.458C14.5021 130.539 14.3517 130.578 14.2 130.57H9.84999C9.70857 130.576 9.56903 130.536 9.45323 130.454C9.33742 130.373 9.25188 130.255 9.20999 130.12L0.0999943 104.74C-0.0500057 104.36 0.0999943 104.1 0.559994 104.1H5.42999C5.57493 104.077 5.72313 104.109 5.84658 104.188C5.97004 104.267 6.06019 104.389 6.09999 104.53L12.1 122.84L18.1 104.53C18.1378 104.402 18.2173 104.29 18.326 104.212C18.4347 104.134 18.5664 104.095 18.7 104.1Z" fill="white"/>
<path d="M35.38 104.1H40.1C40.1755 104.094 40.2513 104.105 40.3225 104.131C40.3936 104.157 40.4584 104.197 40.5124 104.251C40.5664 104.304 40.6084 104.368 40.6356 104.438C40.6628 104.509 40.6745 104.585 40.67 104.66V130C40.6688 130.073 40.6529 130.145 40.6233 130.211C40.5937 130.277 40.551 130.337 40.4978 130.387C40.4446 130.436 40.3819 130.474 40.3135 130.499C40.2452 130.524 40.1726 130.534 40.1 130.53H35.38C35.304 130.535 35.2279 130.523 35.1568 130.496C35.0857 130.469 35.0211 130.427 34.9673 130.373C34.9135 130.319 34.8716 130.255 34.8445 130.183C34.8174 130.112 34.8056 130.036 34.81 129.96V104.66C34.8055 104.585 34.8172 104.509 34.8444 104.438C34.8716 104.368 34.9136 104.304 34.9676 104.251C35.0216 104.197 35.0864 104.157 35.1575 104.131C35.2286 104.105 35.3045 104.094 35.38 104.1Z" fill="white"/>
<path d="M77.29 116.01V118.58C77.29 125.39 72.9 131.06 65.37 131.06C61.7197 131.068 58.2156 129.626 55.6279 127.052C53.0402 124.477 51.5806 120.98 51.57 117.33C51.5726 115.54 51.9295 113.768 52.6203 112.117C53.311 110.466 54.3219 108.967 55.5946 107.709C56.8673 106.45 58.3766 105.455 60.0355 104.783C61.6944 104.11 63.4701 103.773 65.26 103.79C66.9962 103.774 68.7178 104.108 70.3224 104.771C71.927 105.434 73.3818 106.413 74.6 107.65C74.6588 107.699 74.706 107.76 74.7385 107.829C74.7709 107.898 74.7877 107.974 74.7877 108.05C74.7877 108.127 74.7709 108.202 74.7385 108.271C74.706 108.34 74.6588 108.401 74.6 108.45L71.69 111.62C71.6422 111.679 71.5819 111.726 71.5136 111.758C71.4453 111.791 71.3706 111.808 71.295 111.808C71.2194 111.808 71.1447 111.791 71.0764 111.758C71.0081 111.726 70.9478 111.679 70.9 111.62C69.3263 110.252 67.3053 109.508 65.22 109.53C63.1768 109.617 61.247 110.493 59.8376 111.975C58.4281 113.457 57.649 115.428 57.6646 117.473C57.6802 119.518 58.4891 121.477 59.921 122.937C61.3528 124.397 63.2957 125.245 65.34 125.3C69.34 125.3 71.39 122.96 71.5 120.3H65.5C65.424 120.305 65.348 120.293 65.2768 120.266C65.2057 120.239 65.1411 120.197 65.0873 120.143C65.0335 120.089 64.9916 120.024 64.9645 119.953C64.9374 119.882 64.9257 119.806 64.93 119.73V115.95C64.9257 115.874 64.9374 115.798 64.9645 115.727C64.9916 115.656 65.0335 115.591 65.0873 115.537C65.1411 115.484 65.2057 115.442 65.2768 115.415C65.348 115.388 65.424 115.376 65.5 115.38H76.72C76.8016 115.374 76.8835 115.387 76.9594 115.418C77.0353 115.448 77.1033 115.496 77.1582 115.557C77.2131 115.617 77.2535 115.69 77.2763 115.768C77.2992 115.847 77.3038 115.93 77.29 116.01Z" fill="white"/>
<path d="M87.24 117.45C87.2341 114.75 88.0297 112.109 89.5262 109.861C91.0227 107.613 93.1527 105.86 95.6463 104.824C98.1399 103.788 100.885 103.516 103.534 104.041C106.182 104.566 108.616 105.866 110.525 107.775C112.434 109.685 113.734 112.118 114.259 114.767C114.785 117.415 114.512 120.16 113.476 122.654C112.44 125.148 110.687 127.277 108.439 128.774C106.192 130.27 103.55 131.066 100.85 131.06C97.2404 131.06 93.7786 129.626 91.2263 127.074C88.6739 124.522 87.24 121.06 87.24 117.45ZM108.61 117.45C108.579 115.927 108.098 114.448 107.23 113.197C106.361 111.945 105.143 110.978 103.727 110.416C102.312 109.854 100.762 109.723 99.2716 110.037C97.7814 110.352 96.4172 111.1 95.3499 112.186C94.2826 113.273 93.5596 114.65 93.2714 116.146C92.9833 117.641 93.1428 119.189 93.73 120.594C94.3171 122 95.3059 123.2 96.5724 124.046C97.8389 124.892 99.3269 125.346 100.85 125.35C101.881 125.349 102.901 125.143 103.851 124.744C104.801 124.345 105.662 123.76 106.384 123.025C107.106 122.29 107.675 121.418 108.057 120.461C108.439 119.504 108.627 118.481 108.61 117.45Z" fill="white"/>
<path d="M144.01 130.53H139.01C138.872 130.54 138.734 130.509 138.613 130.442C138.492 130.374 138.394 130.273 138.33 130.15L132.84 121.61H131.29V129.96C131.296 130.036 131.285 130.112 131.26 130.183C131.234 130.254 131.193 130.319 131.14 130.373C131.087 130.427 131.023 130.469 130.952 130.496C130.881 130.523 130.806 130.535 130.73 130.53H126C125.924 130.535 125.848 130.523 125.777 130.496C125.706 130.469 125.641 130.427 125.587 130.373C125.533 130.319 125.492 130.255 125.465 130.183C125.437 130.112 125.426 130.036 125.43 129.96V104.66C125.426 104.585 125.437 104.509 125.464 104.438C125.492 104.368 125.534 104.304 125.588 104.251C125.642 104.197 125.706 104.157 125.778 104.131C125.849 104.105 125.925 104.094 126 104.1H134C140.36 104.1 143.84 107.69 143.84 112.87C143.936 114.606 143.463 116.326 142.494 117.769C141.526 119.213 140.113 120.301 138.47 120.87L144.37 129.87C144.65 130.31 144.46 130.53 144.01 130.53ZM131.26 116.42H133.91C135.99 116.42 138.26 115.63 138.26 112.83C138.26 110.03 135.99 109.24 133.91 109.24H131.26V116.42Z" fill="white"/>
<path d="M170.98 104.66V108.71C170.984 108.786 170.973 108.862 170.945 108.933C170.918 109.005 170.877 109.069 170.823 109.123C170.769 109.177 170.704 109.219 170.633 109.246C170.562 109.273 170.486 109.285 170.41 109.28H164.77V130C164.776 130.076 164.765 130.152 164.74 130.223C164.714 130.294 164.673 130.359 164.62 130.413C164.567 130.467 164.503 130.509 164.432 130.536C164.361 130.563 164.286 130.575 164.21 130.57H159.48C159.404 130.575 159.328 130.563 159.257 130.536C159.186 130.509 159.121 130.467 159.067 130.413C159.013 130.359 158.972 130.295 158.944 130.223C158.917 130.152 158.906 130.076 158.91 130V109.28H153.28C153.204 109.285 153.128 109.273 153.057 109.246C152.986 109.219 152.921 109.177 152.867 109.123C152.813 109.069 152.772 109.005 152.745 108.933C152.717 108.862 152.706 108.786 152.71 108.71V104.66C152.705 104.585 152.717 104.509 152.744 104.438C152.772 104.368 152.814 104.304 152.868 104.251C152.922 104.197 152.986 104.157 153.058 104.131C153.129 104.105 153.204 104.094 153.28 104.1H170.41C170.485 104.094 170.561 104.105 170.632 104.131C170.704 104.157 170.768 104.197 170.822 104.251C170.876 104.304 170.918 104.368 170.946 104.438C170.973 104.509 170.985 104.585 170.98 104.66Z" fill="white"/>
<path d="M197.23 125.96V129.96C197.234 130.036 197.223 130.112 197.196 130.183C197.168 130.255 197.127 130.319 197.073 130.373C197.019 130.427 196.954 130.469 196.883 130.496C196.812 130.523 196.736 130.535 196.66 130.53H182.44C182.364 130.535 182.288 130.523 182.217 130.496C182.146 130.469 182.081 130.427 182.027 130.373C181.973 130.319 181.932 130.255 181.905 130.183C181.877 130.112 181.866 130.036 181.87 129.96V104.66C181.866 104.585 181.877 104.509 181.904 104.438C181.932 104.368 181.974 104.304 182.028 104.251C182.082 104.197 182.146 104.157 182.218 104.131C182.289 104.105 182.365 104.094 182.44 104.1H196.62C196.696 104.094 196.771 104.105 196.842 104.131C196.914 104.157 196.978 104.197 197.032 104.251C197.086 104.304 197.128 104.368 197.156 104.438C197.183 104.509 197.195 104.585 197.19 104.66V108.71C197.194 108.786 197.183 108.862 197.155 108.933C197.128 109.005 197.087 109.069 197.033 109.123C196.979 109.177 196.914 109.219 196.843 109.246C196.772 109.273 196.696 109.285 196.62 109.28H187.73V114.46H196.1C196.176 114.456 196.252 114.468 196.323 114.495C196.394 114.522 196.459 114.564 196.513 114.617C196.567 114.671 196.608 114.736 196.636 114.807C196.663 114.878 196.674 114.954 196.67 115.03V119.03C196.674 119.106 196.663 119.182 196.636 119.253C196.608 119.325 196.567 119.389 196.513 119.443C196.459 119.497 196.394 119.539 196.323 119.566C196.252 119.593 196.176 119.605 196.1 119.6H187.74V125.35H196.67C196.749 125.347 196.828 125.36 196.901 125.39C196.974 125.421 197.039 125.466 197.092 125.524C197.146 125.583 197.186 125.652 197.21 125.727C197.233 125.802 197.24 125.882 197.23 125.96Z" fill="white"/>
<path d="M230.1 126.37C230.157 126.42 230.203 126.481 230.235 126.55C230.266 126.619 230.282 126.694 230.282 126.77C230.282 126.846 230.266 126.921 230.235 126.99C230.203 127.059 230.157 127.12 230.1 127.17C228.888 128.417 227.435 129.405 225.829 130.074C224.224 130.743 222.499 131.078 220.76 131.06C218.938 131.109 217.125 130.793 215.428 130.13C213.73 129.467 212.183 128.471 210.877 127.2C209.571 125.929 208.533 124.409 207.825 122.73C207.116 121.051 206.751 119.247 206.751 117.425C206.751 115.603 207.116 113.799 207.825 112.12C208.533 110.441 209.571 108.922 210.877 107.651C212.183 106.38 213.73 105.383 215.428 104.72C217.125 104.057 218.938 103.741 220.76 103.79C222.496 103.777 224.216 104.112 225.82 104.775C227.425 105.438 228.88 106.416 230.1 107.65C230.157 107.7 230.203 107.761 230.235 107.83C230.266 107.899 230.282 107.974 230.282 108.05C230.282 108.126 230.266 108.201 230.235 108.27C230.203 108.339 230.157 108.4 230.1 108.45L227.19 111.62C227.141 111.679 227.08 111.726 227.011 111.759C226.942 111.791 226.866 111.808 226.79 111.808C226.714 111.808 226.638 111.791 226.569 111.759C226.5 111.726 226.439 111.679 226.39 111.62C224.825 110.241 222.806 109.486 220.72 109.5C218.677 109.573 216.743 110.436 215.323 111.906C213.904 113.377 213.111 115.341 213.111 117.385C213.111 119.429 213.904 121.393 215.323 122.864C216.743 124.335 218.677 125.197 220.72 125.27C222.804 125.282 224.821 124.532 226.39 123.16C226.44 123.103 226.501 123.057 226.57 123.026C226.639 122.994 226.714 122.978 226.79 122.978C226.866 122.978 226.941 122.994 227.01 123.026C227.079 123.057 227.14 123.103 227.19 123.16L230.1 126.37Z" fill="white"/>
<path d="M261.9 104.66V130C261.906 130.075 261.895 130.151 261.87 130.222C261.844 130.293 261.803 130.358 261.75 130.412C261.697 130.466 261.633 130.508 261.562 130.535C261.491 130.563 261.416 130.574 261.34 130.57H256.61C256.534 130.574 256.458 130.562 256.387 130.535C256.316 130.508 256.251 130.466 256.197 130.413C256.143 130.359 256.102 130.294 256.075 130.223C256.047 130.152 256.036 130.076 256.04 130V120.17H246.81V130C246.816 130.075 246.805 130.151 246.78 130.222C246.754 130.293 246.713 130.358 246.66 130.412C246.607 130.466 246.543 130.508 246.472 130.535C246.401 130.563 246.326 130.574 246.25 130.57H241.52C241.444 130.574 241.368 130.562 241.297 130.535C241.226 130.508 241.161 130.466 241.107 130.413C241.053 130.359 241.012 130.294 240.985 130.223C240.957 130.152 240.946 130.076 240.95 130V104.66C240.945 104.584 240.957 104.509 240.984 104.438C241.012 104.367 241.054 104.303 241.108 104.25C241.162 104.197 241.226 104.156 241.298 104.13C241.369 104.104 241.445 104.094 241.52 104.1H246.25C246.325 104.094 246.401 104.104 246.471 104.13C246.542 104.156 246.606 104.197 246.659 104.25C246.713 104.304 246.754 104.368 246.78 104.439C246.806 104.509 246.816 104.585 246.81 104.66V114.99H256.04V104.66C256.035 104.584 256.047 104.509 256.074 104.438C256.102 104.367 256.144 104.303 256.198 104.25C256.252 104.197 256.316 104.156 256.388 104.13C256.459 104.104 256.535 104.094 256.61 104.1H261.34C261.415 104.094 261.491 104.104 261.561 104.13C261.632 104.156 261.696 104.197 261.749 104.25C261.803 104.304 261.844 104.368 261.87 104.439C261.896 104.509 261.906 104.585 261.9 104.66Z" fill="white"/>
</g>
<defs>
<clipPath id="clip0_30_85">
<rect width="261.9" height="131.07" fill="white"/>
</clipPath>
</defs>
</svg>
