<svg width="377" height="80" viewBox="0 0 377 80" fill="none" xmlns="http://www.w3.org/2000/svg">
<g clip-path="url(#clip0_30_74)">
<path d="M84.82 0C81.9653 0.0046092 79.2078 1.03698 77.0519 2.9082C74.8961 4.77942 73.4861 7.36436 73.08 10.19H62.56L34.92 63.67L19.56 33.69H0L23.7 79.26H34.56L68.56 13.54H73.05C73.3719 15.7898 74.3335 17.8997 75.8203 19.6186C77.307 21.3375 79.2564 22.593 81.4363 23.2358C83.6162 23.8785 85.9349 23.8814 88.1164 23.2441C90.2979 22.6067 92.2503 21.356 93.7413 19.6408C95.2323 17.9255 96.1991 15.818 96.5266 13.5691C96.8541 11.3201 96.5285 9.02437 95.5887 6.95514C94.6488 4.88591 93.1341 3.1303 91.225 1.89726C89.3159 0.664216 87.0927 0.00567146 84.82 0ZM84.82 18.66C83.3092 18.6585 81.8419 18.1546 80.6489 17.2277C79.4558 16.3008 78.6049 15.0035 78.23 13.54C78.102 12.989 78.0349 12.4256 78.03 11.86C78.0349 11.2977 78.102 10.7376 78.23 10.19C78.5427 8.95578 79.1956 7.83413 80.1144 6.95274C81.0332 6.07135 82.1811 5.46563 83.4272 5.20453C84.6734 4.94342 85.9678 5.03742 87.1632 5.47583C88.3585 5.91424 89.4068 6.67944 90.1887 7.68433C90.9705 8.68922 91.4545 9.89343 91.5856 11.1599C91.7167 12.4263 91.4896 13.7041 90.9301 14.8479C90.3707 15.9916 89.5014 16.9553 88.4212 17.6292C87.341 18.3032 86.0932 18.6603 84.82 18.66Z" fill="white"/>
<path d="M130.64 43.03H135.64C136.06 43.03 136.25 43.3 136.1 43.68L126.83 69.37C126.772 69.5134 126.67 69.6349 126.539 69.7174C126.408 69.7999 126.255 69.8393 126.1 69.83H121.7C121.556 69.8346 121.415 69.7921 121.298 69.7091C121.18 69.626 121.093 69.507 121.05 69.37L111.79 43.68C111.64 43.3 111.79 43.03 112.25 43.03H117.25C117.395 43.0161 117.541 43.0549 117.66 43.1393C117.78 43.2237 117.865 43.3482 117.9 43.49L123.99 62.02L130.04 43.49C130.074 43.357 130.151 43.2393 130.26 43.1558C130.369 43.0724 130.503 43.028 130.64 43.03Z" fill="white"/>
<path d="M147.56 43.03H152.35C152.427 43.0255 152.504 43.0375 152.576 43.0652C152.648 43.0929 152.713 43.1356 152.767 43.1906C152.821 43.2455 152.862 43.3114 152.889 43.3837C152.915 43.456 152.926 43.5332 152.92 43.61V69.26C152.924 69.336 152.913 69.412 152.885 69.4832C152.858 69.5543 152.817 69.6189 152.763 69.6727C152.709 69.7266 152.644 69.7684 152.573 69.7955C152.502 69.8226 152.426 69.8344 152.35 69.83H147.56C147.484 69.8344 147.408 69.8226 147.337 69.7955C147.266 69.7684 147.201 69.7266 147.147 69.6727C147.093 69.6189 147.052 69.5543 147.025 69.4832C146.997 69.412 146.986 69.336 146.99 69.26V43.61C146.984 43.5332 146.995 43.456 147.021 43.3837C147.048 43.3114 147.089 43.2455 147.143 43.1906C147.197 43.1356 147.262 43.0929 147.334 43.0652C147.406 43.0375 147.483 43.0255 147.56 43.03Z" fill="white"/>
<path d="M189.93 55.13V57.73C189.93 64.63 185.49 70.37 177.88 70.37C176.048 70.3779 174.232 70.0245 172.536 69.33C170.841 68.6354 169.299 67.6135 167.998 66.3225C166.698 65.0315 165.665 63.4968 164.958 61.8062C164.252 60.1156 163.885 58.3023 163.88 56.47C163.877 54.653 164.235 52.8536 164.934 51.1762C165.632 49.4988 166.657 47.9768 167.948 46.6985C169.239 45.4203 170.771 44.4112 172.456 43.73C174.14 43.0487 175.943 42.7088 177.76 42.73C179.518 42.7138 181.261 43.0506 182.886 43.7205C184.511 44.3905 185.985 45.3798 187.22 46.63C187.279 46.6798 187.326 46.7418 187.359 46.8117C187.391 46.8817 187.408 46.9579 187.408 47.035C187.408 47.1121 187.391 47.1883 187.359 47.2583C187.326 47.3282 187.279 47.3902 187.22 47.44L184.27 50.65C184.221 50.7087 184.16 50.756 184.091 50.7885C184.022 50.8209 183.946 50.8377 183.87 50.8377C183.794 50.8377 183.718 50.8209 183.649 50.7885C183.58 50.756 183.519 50.7087 183.47 50.65C181.879 49.2581 179.834 48.4968 177.72 48.51C176.669 48.5179 175.631 48.7326 174.663 49.1419C173.696 49.5512 172.818 50.1471 172.081 50.8956C171.343 51.644 170.761 52.5303 170.366 53.504C169.971 54.4776 169.772 55.5194 169.78 56.57C169.788 57.6206 170.003 58.6593 170.412 59.6269C170.821 60.5945 171.417 61.472 172.166 62.2093C172.914 62.9466 173.8 63.5292 174.774 63.924C175.748 64.3188 176.789 64.5179 177.84 64.51C181.84 64.51 183.96 62.14 184.08 59.51H178.03C177.954 59.5144 177.878 59.5026 177.807 59.4755C177.736 59.4484 177.671 59.4065 177.617 59.3527C177.563 59.2989 177.522 59.2343 177.495 59.1632C177.467 59.092 177.456 59.016 177.46 58.94V55.13C177.456 55.054 177.467 54.978 177.495 54.9068C177.522 54.8357 177.563 54.7711 177.617 54.7173C177.671 54.6635 177.736 54.6216 177.807 54.5945C177.878 54.5674 177.954 54.5556 178.03 54.56H189.36C189.436 54.5556 189.512 54.5674 189.583 54.5945C189.654 54.6216 189.719 54.6635 189.773 54.7173C189.827 54.7711 189.868 54.8357 189.895 54.9068C189.923 54.978 189.934 55.054 189.93 55.13Z" fill="white"/>
<path d="M200 56.55C199.996 53.8189 200.803 51.1481 202.317 48.8756C203.832 46.6032 205.987 44.8313 208.51 43.7843C211.032 42.7373 213.809 42.4624 216.487 42.9942C219.166 43.526 221.627 44.8408 223.558 46.7719C225.489 48.7031 226.804 51.1639 227.336 53.8427C227.868 56.5215 227.593 59.2978 226.546 61.8203C225.499 64.3427 223.727 66.4978 221.454 68.0126C219.182 69.5275 216.511 70.334 213.78 70.33C210.125 70.33 206.62 68.8782 204.036 66.2939C201.452 63.7097 200 60.2047 200 56.55ZM221.63 56.55C221.597 55.0099 221.11 53.5139 220.23 52.2492C219.35 50.9846 218.117 50.0075 216.685 49.4402C215.253 48.873 213.685 48.7408 212.178 49.0602C210.671 49.3797 209.292 50.1365 208.213 51.236C207.134 52.3356 206.404 53.7289 206.113 55.2417C205.822 56.7544 205.984 58.3193 206.578 59.7406C207.172 61.1618 208.172 62.3761 209.454 63.2316C210.735 64.0871 212.24 64.5457 213.78 64.55C214.823 64.5488 215.856 64.34 216.818 63.9357C217.779 63.5314 218.651 62.9397 219.381 62.195C220.112 61.4504 220.687 60.5678 221.073 59.5986C221.459 58.6294 221.649 57.5931 221.63 56.55Z" fill="white"/>
<path d="M257.46 69.83H252.37C252.231 69.8381 252.092 69.8067 251.97 69.7394C251.848 69.6722 251.748 69.5719 251.68 69.45L246.13 60.79H244.56V69.26C244.564 69.336 244.553 69.412 244.525 69.4832C244.498 69.5543 244.457 69.6189 244.403 69.6727C244.349 69.7266 244.284 69.7684 244.213 69.7955C244.142 69.8226 244.066 69.8344 243.99 69.83H239.2C239.124 69.8344 239.048 69.8226 238.977 69.7955C238.906 69.7684 238.841 69.7266 238.787 69.6727C238.733 69.6189 238.692 69.5543 238.665 69.4832C238.637 69.412 238.626 69.336 238.63 69.26V43.61C238.624 43.5332 238.635 43.456 238.661 43.3837C238.688 43.3114 238.729 43.2455 238.783 43.1906C238.837 43.1356 238.902 43.0929 238.974 43.0652C239.046 43.0375 239.123 43.0255 239.2 43.03H247.36C253.79 43.03 257.31 46.67 257.31 51.91C257.41 53.6709 256.932 55.4163 255.951 56.8816C254.969 58.3468 253.536 59.4522 251.87 60.03L257.87 69.14C258.11 69.56 257.92 69.83 257.46 69.83ZM244.56 55.55H247.24C249.35 55.55 251.64 54.75 251.64 51.91C251.64 49.07 249.35 48.28 247.24 48.28H244.56V55.55Z" fill="white"/>
<path d="M284.75 43.61V47.7C284.756 47.7768 284.745 47.854 284.719 47.9263C284.692 47.9986 284.651 48.0645 284.597 48.1194C284.543 48.1744 284.478 48.2171 284.406 48.2448C284.334 48.2725 284.257 48.2845 284.18 48.28H278.48V69.28C278.485 69.3569 278.473 69.4339 278.445 69.5057C278.417 69.5776 278.374 69.6427 278.319 69.6967C278.265 69.7507 278.199 69.7923 278.126 69.8187C278.054 69.8452 277.977 69.8558 277.9 69.85H273.12C273.043 69.8558 272.966 69.8452 272.894 69.8187C272.821 69.7923 272.756 69.7507 272.701 69.6967C272.646 69.6427 272.603 69.5776 272.575 69.5057C272.548 69.4339 272.536 69.3569 272.54 69.28V48.28H266.84C266.763 48.2844 266.685 48.2723 266.613 48.2447C266.541 48.2171 266.475 48.1745 266.42 48.1198C266.365 48.065 266.323 47.9993 266.295 47.927C266.268 47.8547 266.256 47.7773 266.26 47.7V43.61C266.256 43.5327 266.268 43.4553 266.295 43.383C266.323 43.3107 266.365 43.245 266.42 43.1902C266.475 43.1355 266.541 43.0929 266.613 43.0653C266.685 43.0377 266.763 43.0257 266.84 43.03H284.18C284.257 43.0255 284.334 43.0375 284.406 43.0652C284.478 43.0929 284.543 43.1356 284.597 43.1906C284.651 43.2455 284.692 43.3114 284.719 43.3837C284.745 43.456 284.756 43.5332 284.75 43.61Z" fill="white"/>
<path d="M311.32 65.13V69.23C311.324 69.306 311.313 69.382 311.285 69.4532C311.258 69.5243 311.217 69.5889 311.163 69.6427C311.109 69.6965 311.044 69.7384 310.973 69.7655C310.902 69.7926 310.826 69.8044 310.75 69.8H296.35C296.274 69.8044 296.198 69.7926 296.127 69.7655C296.056 69.7384 295.991 69.6965 295.937 69.6427C295.883 69.5889 295.842 69.5243 295.815 69.4532C295.787 69.382 295.776 69.306 295.78 69.23V43.61C295.774 43.5332 295.785 43.456 295.811 43.3837C295.838 43.3114 295.879 43.2455 295.933 43.1906C295.987 43.1356 296.052 43.0929 296.124 43.0652C296.196 43.0375 296.273 43.0255 296.35 43.03H310.71C310.787 43.0255 310.864 43.0375 310.936 43.0652C311.008 43.0929 311.073 43.1356 311.127 43.1906C311.181 43.2455 311.222 43.3114 311.249 43.3837C311.275 43.456 311.286 43.5332 311.28 43.61V47.7C311.286 47.7768 311.275 47.854 311.249 47.9263C311.222 47.9986 311.181 48.0645 311.127 48.1194C311.073 48.1744 311.008 48.2171 310.936 48.2448C310.864 48.2725 310.787 48.2845 310.71 48.28H301.71V53.52H310.17C310.247 53.5157 310.325 53.5277 310.397 53.5553C310.469 53.5829 310.535 53.6255 310.59 53.6802C310.645 53.735 310.687 53.8007 310.715 53.873C310.742 53.9453 310.754 54.0227 310.75 54.1V58.19C310.754 58.2673 310.742 58.3447 310.715 58.417C310.687 58.4893 310.645 58.555 310.59 58.6098C310.535 58.6645 310.469 58.7071 310.397 58.7347C310.325 58.7623 310.247 58.7743 310.17 58.77H301.71V64.59H310.71C310.787 64.58 310.864 64.5865 310.938 64.6091C311.012 64.6317 311.08 64.6699 311.138 64.7211C311.196 64.7723 311.242 64.8353 311.273 64.9058C311.305 64.9763 311.321 65.0528 311.32 65.13Z" fill="white"/>
<path d="M344.56 65.58C344.619 65.6288 344.666 65.6899 344.698 65.7591C344.731 65.8282 344.748 65.9036 344.748 65.98C344.748 66.0564 344.731 66.1318 344.698 66.2009C344.666 66.2701 344.619 66.3312 344.56 66.38C343.338 67.6543 341.868 68.6661 340.242 69.3539C338.615 70.0416 336.866 70.3907 335.1 70.38C331.44 70.38 327.93 68.9261 325.342 66.3381C322.754 63.7501 321.3 60.24 321.3 56.58C321.3 52.92 322.754 49.4099 325.342 46.8219C327.93 44.2339 331.44 42.78 335.1 42.78C336.854 42.7573 338.595 43.0862 340.22 43.7475C341.844 44.4087 343.32 45.3889 344.56 46.63C344.619 46.6798 344.666 46.7418 344.699 46.8117C344.731 46.8817 344.748 46.9579 344.748 47.035C344.748 47.1121 344.731 47.1883 344.699 47.2583C344.666 47.3282 344.619 47.3903 344.56 47.44L341.56 50.65C341.511 50.7087 341.45 50.756 341.381 50.7885C341.312 50.8209 341.236 50.8377 341.16 50.8377C341.084 50.8377 341.008 50.8209 340.939 50.7885C340.87 50.756 340.809 50.7087 340.76 50.65C339.169 49.2581 337.124 48.4968 335.01 48.51C332.888 48.51 330.853 49.3529 329.353 50.8531C327.853 52.3534 327.01 54.3883 327.01 56.51C327.01 58.6317 327.853 60.6666 329.353 62.1669C330.853 63.6671 332.888 64.51 335.01 64.51C337.126 64.5242 339.173 63.7588 340.76 62.36C340.81 62.3028 340.871 62.2569 340.94 62.2254C341.009 62.194 341.084 62.1777 341.16 62.1777C341.236 62.1777 341.311 62.194 341.38 62.2254C341.449 62.2569 341.51 62.3028 341.56 62.36L344.56 65.58Z" fill="white"/>
<path d="M376.78 43.61V69.26C376.785 69.3369 376.773 69.4139 376.745 69.4857C376.717 69.5576 376.674 69.6227 376.619 69.6767C376.564 69.7307 376.499 69.7723 376.426 69.7987C376.354 69.8252 376.277 69.8358 376.2 69.83H371.42C371.344 69.8344 371.268 69.8226 371.197 69.7955C371.126 69.7684 371.061 69.7266 371.007 69.6727C370.953 69.6189 370.912 69.5543 370.885 69.4832C370.857 69.412 370.846 69.336 370.85 69.26V59.26H361.56V69.26C361.565 69.3369 361.553 69.4139 361.525 69.4857C361.497 69.5576 361.454 69.6227 361.399 69.6767C361.344 69.7307 361.279 69.7723 361.206 69.7987C361.134 69.8252 361.057 69.8358 360.98 69.83H356.2C356.123 69.8358 356.046 69.8252 355.974 69.7987C355.901 69.7723 355.836 69.7307 355.781 69.6767C355.726 69.6227 355.683 69.5576 355.655 69.4857C355.627 69.4139 355.616 69.3369 355.62 69.26V43.61C355.616 43.5327 355.628 43.4553 355.655 43.383C355.683 43.3107 355.725 43.245 355.78 43.1902C355.835 43.1355 355.901 43.0929 355.973 43.0653C356.045 43.0377 356.123 43.0257 356.2 43.03H360.98C361.057 43.0257 361.135 43.0377 361.207 43.0653C361.279 43.0929 361.345 43.1355 361.4 43.1902C361.455 43.245 361.497 43.3107 361.525 43.383C361.552 43.4553 361.564 43.5327 361.56 43.61V54.06H370.9V43.61C370.894 43.5332 370.905 43.456 370.931 43.3837C370.958 43.3114 370.999 43.2455 371.053 43.1906C371.107 43.1356 371.172 43.0929 371.244 43.0652C371.316 43.0375 371.393 43.0255 371.47 43.03H376.25C376.323 43.0326 376.395 43.0497 376.461 43.0803C376.528 43.111 376.587 43.1546 376.637 43.2087C376.686 43.2627 376.724 43.326 376.749 43.3949C376.773 43.4638 376.784 43.5369 376.78 43.61Z" fill="white"/>
</g>
<defs>
<clipPath id="clip0_30_74">
<rect width="376.78" height="79.26" fill="white"/>
</clipPath>
</defs>
</svg>
